<svg xmlns="http://www.w3.org/2000/svg" width="1026" height="631" viewBox="0 0 1026 631"><path d="M98.839 40.052h-32.037c-4.423 0-8.009 3.589-8.009 8.016v32.064c0 4.427 3.586 8.016 8.009 8.016h32.037c4.424 0 8.009-3.589 8.009-8.016v-32.065c0-4.426-3.585-8.015-8.009-8.015zm158.174 8.615c0-4.427-3.586-8.016-8.009-8.016h-128.95c-4.424 0-8.009 3.589-8.009 8.016v32.064c0 4.427 3.585 8.016 8.009 8.016h128.95c4.423 0 8.009-3.589 8.009-8.016v-32.064zm133.05 462.376h-17.196l-7.852-22.194-8.426 22.194h-94.729c-3.309 0-5.991 2.684-5.991 5.995v35.968c0 3.311 2.683 5.994 5.991 5.994h128.545c1.317 0 2.515-.507 3.417-1.331 1.359-1.099 2.23-2.778 2.23-4.663v-35.968c.002-3.311-2.68-5.995-5.989-5.995zm333.947-89.35h-79.351l-9.313-21.58s-2.92 13.6-4.717 21.58h-27.033c-3.309 0-5.991 2.684-5.991 5.995v39.564c0 3.311 2.683 5.994 5.991 5.994h120.414c3.309 0 5.99-2.684 5.99-5.994v-39.564c0-3.311-2.682-5.995-5.99-5.995zm269.244-89.454h-104.239c-3.309 0-5.991 2.684-5.991 5.995v4.479l-24.504 8.315 24.504 7.612v6.568c0 3.311 2.683 5.994 5.991 5.994h104.239c3.309 0 5.99-2.684 5.99-5.994v-26.976c0-3.309-2.682-5.993-5.99-5.993zm-203.681-270.247h-200.079c-2.805 0-5.078 2.275-5.078 5.083v6.979l-24.375 8.271 24.375 7.572v8.186c0 2.808 2.273 5.084 5.078 5.084h200.079c2.805 0 5.078-2.276 5.078-5.084v-31.008c0-2.807-2.273-5.083-5.078-5.083z" opacity=".502" enable-background="new"/><path fill-rule="evenodd" clip-rule="evenodd" fill="#8DC63F" stroke="#fff" stroke-width="2" stroke-miterlimit="10" d="M62.009 31.659h32.037c4.423 0 8.009 3.589 8.009 8.016v32.064c0 4.427-3.586 8.017-8.009 8.017h-32.037c-4.423 0-8.009-3.59-8.009-8.017v-32.064c0-4.427 3.586-8.016 8.009-8.016z" enable-background="new"/><path fill="#A0DE4C" d="M88.44 36.469h-20.824c-4.423 0-8.009 2.871-8.009 6.413v9.619h36.843v-9.619c-.001-3.542-3.587-6.413-8.01-6.413z" enable-background="new"/><path fill="#fff" d="M77.627 44.484l-12.414 11.223h4.806v11.223h4.805v-6.413h6.407v6.413h4.806v-11.223h4.005z" enable-background="new"/><path fill-rule="evenodd" clip-rule="evenodd" fill="#ED1C24" stroke="#fff" stroke-width="2" stroke-miterlimit="10" d="M717.622 465.256h-120.414c-3.309 0-5.99-2.685-5.99-5.995v-39.564c0-3.311 2.682-5.995 5.99-5.995h27.033c1.798-7.98 4.718-21.58 4.718-21.58l9.313 21.58h79.35c3.309 0 5.991 2.685 5.991 5.995v39.564c0 3.31-2.682 5.995-5.991 5.995zm269.244-101.044h-104.238c-3.309 0-5.991-2.684-5.991-5.994v-6.568l-24.504-7.612 24.504-8.315v-4.479c0-3.311 2.683-5.995 5.991-5.995h104.238c3.309 0 5.991 2.685 5.991 5.995v26.976c0 3.308-2.682 5.992-5.991 5.992zm-203.68-268.036h-200.079c-2.805 0-5.078-2.275-5.078-5.083v-8.187l-24.375-7.572 24.375-8.271v-6.979c0-2.807 2.273-5.083 5.078-5.083h200.078c2.805 0 5.078 2.276 5.078 5.083v31.01c.001 2.806-2.273 5.082-5.077 5.082zm-398.167 454.832h-128.54500000000002c-3.309 0-5.991-2.684-5.991-5.994v-35.968c0-3.311 2.683-5.995 5.991-5.995h94.729l8.425-22.194 7.853 22.194h17.195c3.309 0 5.991 2.685 5.991 5.995v35.968c0 1.885-.871 3.564-2.23 4.663-.904.824-2.1 1.331-3.418 1.331zm-144.403-471.252h-128.949c-4.423 0-8.009-3.59-8.009-8.017v-32.064c0-4.427 3.586-8.016 8.009-8.016h128.949c4.424 0 8.01 3.589 8.01 8.016v32.064c0 4.427-3.586 8.017-8.01 8.017z" enable-background="new"/><path fill="#F5464D" d="M234.209 37.271h-115.334c-4.424 0-8.009 3.589-8.009 8.016v8.818h131.353v-8.818c0-4.428-3.587-8.016-8.01-8.016zm477.368 382.027h-109.766c-5.266 0-5.597 3.061-5.597 6.846v7.54h122.211v-7.54c0-3.786-1.582-6.846-6.848-6.846zm-332.161 88.684h-118.134c-3.749 0-6.789 3.043-6.789 6.797v7.478h131.712v-7.478c0-3.754-3.04-6.797-6.789-6.797zm602.98-177.72h-96.161c-4.395 0-4.672 3.029-4.672 6.775v7.46h106.549v-7.46c-.001-3.746-1.321-6.775-5.716-6.775zm-207.539-269.703h-185.561c-6.789 0-7.216 3.029-7.216 6.775v7.46h201.606v-7.46c.001-3.746-2.04-6.775-8.829-6.775z" enable-background="new"/><path fill="#fff" d="M165.59 67.648c.272.729.533 1.539.746 2.326l-1.907.196c.604-2.268 1.173-5.183 1.469-7.647.225-.034.391-.15.438-.289l-2.322-.428c-.225 2.776-.77 6.132-1.398 8.538l-1.054.081.604 1.932c.106-.023.213-.093.237-.22 1.102-.139 2.689-.37 4.289-.602.071.358.119.706.142 1.007l1.836-.544c-.154-1.308-.77-3.263-1.422-4.802l-1.658.452zm-2.843.614c-.261-.277-1.339-1.388-1.753-1.746v-.012h1.635v-1.597h-1.635v-1.492c.581-.186 1.102-.382 1.552-.591.178 0 .272 0 .344-.069l-1.386-1.226c-1.019.566-2.666 1.099-4.217 1.411.201.324.438.902.521 1.249.486-.092.995-.196 1.493-.312v1.03h-1.848v1.597h1.504c-.45 1.018-1.102 2.151-1.753 2.869.261.439.652 1.156.806 1.643.462-.578.9-1.365 1.291-2.21v3.714h1.694v-4.107c.284.394.569.799.747 1.111l1.005-1.262zm8.244-3.574l1.422-1.053c-.379-.544-1.197-1.296-1.848-1.805l-1.315.948c.64.568 1.421 1.366 1.741 1.91zm1.138 5.02v-3.702h-2.879v1.551h1.232v2.268c-.462.335-.948.659-1.386.914l.817 1.77c.13-.058.178-.115.178-.266.402-.324.865-.729 1.315-1.157 1.007 1.261 2.25 1.284 5.141 1.284 1.185 0 2.453-.035 3.376-.081.083-.475.344-1.249.533-1.631-1.185.104-2.867.15-4.289.15-2.285 0-3.434 0-4.038-1.1zm1.705-4.708c.107.254.225.555.285.821h-1.505v1.134h2.855v.301h-2.381v1.099h2.381v.312h-2.82v1.157h2.82v.683h1.706v-.683h2.891v-1.157h-2.891v-.312h2.476v-1.099h-2.476v-.301h2.915v-1.134h-1.647c.143-.22.285-.451.391-.648.178.012.284-.034.332-.139l-.166-.046h1.196v-1.157h-3.021v-.347h2.322v-1.146h-2.322v-.451c.237-.047.344-.127.355-.255l-2.061-.104v.81h-2.216v1.146h2.216v.347h-3.009v1.157h1.434l-.06.012zm3.354-.012c-.095.289-.213.59-.32.833h-1.113c-.036-.231-.154-.544-.284-.833h1.717zm6.147 4.084c-.036-.22-.036-.486-.036-.811 0-1.607.166-3.471.628-5.541.225-.023.332-.116.344-.243l-2.287-.289c-.284 1.862-.521 4.025-.521 5.622 0 1.551.178 3.089.557 4.212l1.801-.255c-.036-.139-.06-.277-.06-.428 0-.174.036-.359.095-.556.178-.578.628-1.203.972-1.84l-.794-1.33c-.142.348-.593 1.228-.699 1.459zm7.558-4.234l-.154-1.735c-1.375.231-3.685.393-4.952.428l.059 1.689c1.398-.024 3.649-.174 5.047-.382zm-3.53 3.922c0-.544.308-1.064.817-1.527l-1.741-.544c-.604.74-.972 1.481-.972 2.337 0 2.222 2.808 2.222 4.36 2.222.45 0 .912-.012 1.35-.035l.06-1.77c-.509.069-1.173.104-1.753.104-1.576-.001-2.121-.162-2.121-.787zm11.194-5.531c-1.41 0-3.21.439-5.177 1.007-.675.185-1.042.277-1.433.347l.746 2.129c.13-.058.261-.174.261-.347 1.777-.799 4.004-1.331 5.414-1.331 1.114 0 2.144.567 2.144 1.863 0 1.596-1.907 2.51-5.793 2.811.32.451.664 1.342.758 1.713 4.478-.371 7.061-1.655 7.061-4.64 0-2.626-1.872-3.552-3.981-3.552zm12.297.255l-1.149 1.307c1.398.845 2.346 1.967 2.713 4.072l1.896-.612c-.38-2.326-1.826-3.888-3.46-4.767zm-3.934 6.259c-.604 0-1.185-.949-1.185-3.055 0-1.11.154-2.395.344-3.297.13-.012.272-.104.296-.208l-2.275-.405c-.154 1.146-.225 2.325-.225 3.39 0 .463.012.902.036 1.308.095 1.735.936 4.188 2.95 4.188 1.137 0 1.967-.786 2.512-2.741-.415-.231-1.125-.799-1.469-1.134-.178.809-.616 1.954-.984 1.954zm12.379-1.272c0-1.238 1.552-2.708 2.63-3.46.948-.682 1.493-.786 2.63-.763l-.036-1.886c-2.228.115-6.918.393-8.435.485-.32.023-.924.035-1.291.035l.177 2.013c.119-.023.285-.104.308-.196.865-.104 3.388-.348 4.798-.429-1.588 1.157-2.772 2.916-2.772 4.223 0 1.967 1.362 3.437 4.739 3.795l.889-1.759c-2.428-.219-3.637-.879-3.637-2.058z" enable-background="new"/><path fill="#fff" d="M596.394 73.236l-3.935-4.573h-2.646v12.334h3.047v-7.699l3.304 3.867h.458l3.305-3.867v7.699h3.048v-12.334h-2.649l-3.932 4.573zm15.889.543c-.814-.862-1.858-1.293-3.131-1.293-1.267 0-2.309.409-3.126 1.229-.817.818-1.227 1.864-1.227 3.137 0 1.297.436 2.338 1.306 3.125.869.786 2.031 1.18 3.484 1.18 1.466 0 2.694-.365 3.687-1.095v-1.652c-1.068.795-2.09 1.192-3.064 1.192-.806 0-1.448-.204-1.927-.611-.479-.408-.744-.99-.797-1.746h5.938c.053-1.448-.328-2.603-1.143-3.466zm-4.742 2.088c.129-1.212.727-1.818 1.795-1.818 1.057 0 1.655.606 1.795 1.818h-3.59zm11.082-.152c-.875-.352-1.379-.582-1.51-.69-.132-.109-.198-.22-.198-.331 0-.43.312-.645.938-.645.846 0 1.766.306 2.758.918v-1.863c-.794-.411-1.685-.617-2.671-.617-1.027 0-1.854.238-2.482.716-.627.478-.941 1.096-.941 1.855 0 .513.164.979.49 1.396.327.419.934.803 1.82 1.152s1.408.595 1.563.736c.155.141.233.29.233.449 0 .41-.421.616-1.262.616-.718 0-1.607-.235-2.67-.707v1.846c.863.406 1.851.609 2.959.609 1.08 0 1.912-.235 2.496-.707s.876-1.141.876-2.007c0-.548-.182-1.051-.543-1.511-.362-.458-.981-.864-1.856-1.215zm7.475 0c-.876-.352-1.379-.582-1.511-.69-.132-.109-.197-.22-.197-.331 0-.43.312-.645.937-.645.847 0 1.766.306 2.759.918v-1.863c-.794-.411-1.685-.617-2.671-.617-1.028 0-1.855.238-2.482.716-.628.478-.941 1.096-.941 1.855 0 .513.163.979.49 1.396.326.419.934.803 1.82 1.152.886.35 1.407.595 1.562.736.155.141.233.29.233.449 0 .41-.42.616-1.261.616-.718 0-1.608-.235-2.671-.707v1.846c.864.406 1.851.609 2.96.609 1.08 0 1.911-.235 2.495-.707s.876-1.141.876-2.007c0-.548-.181-1.051-.543-1.511s-.98-.864-1.855-1.215zm10.809 3.109v-3.801c0-1.691-1.168-2.537-3.503-2.537-1.302 0-2.496.338-3.581 1.015v2.137c.928-.93 1.943-1.395 3.047-1.395 1.016 0 1.494.465 1.437 1.395-2.348.702-3.753 1.275-4.217 1.721-.464.444-.696 1.03-.696 1.755 0 .542.225 1.019.675 1.429.449.409.995.614 1.637.614.911 0 1.818-.312 2.724-.936.152.624.637.936 1.454.936.759 0 1.57-.253 2.434-.76v-1.457c-.438.312-.765.468-.98.468-.288 0-.431-.194-.431-.584zm-2.6.15c-.468.419-.946.629-1.437.629-.233 0-.432-.087-.596-.262-.163-.174-.245-.382-.245-.624 0-.378.162-.689.486-.936.324-.244.921-.521 1.791-.828v2.021zm5.398-5.393c-.631.612-.946 1.318-.946 2.119 0 .653.22 1.215.657 1.686.438.472.992.766 1.664.883-1.005.23-1.507.651-1.507 1.263 0 .524.333.887.999 1.086-1.472.4-2.207 1.106-2.207 2.119 0 .73.373 1.315 1.121 1.757.747.441 1.845.663 3.292.663 1.419 0 2.503-.239 3.253-.716s1.126-1.171 1.126-2.084c0-.57-.221-1.104-.661-1.602-.441-.498-1.224-.795-2.348-.893-1.123-.097-1.767-.19-1.931-.282-.163-.091-.245-.21-.245-.357s.062-.267.188-.357c.126-.092.657-.188 1.594-.292.937-.103 1.645-.428 2.123-.976.479-.547.719-1.145.719-1.792 0-.453-.138-.915-.412-1.386h1.183v-1.758h-4.913c-1.202 0-2.118.307-2.749.919zm3.038 8.052c1.349 0 2.023.306 2.023.918 0 .289-.173.536-.517.742-.345.206-.794.309-1.349.309-1.419 0-2.128-.326-2.128-.979 0-.301.175-.54.525-.72.351-.18.834-.27 1.446-.27zm1.004-6.997c.282.279.424.617.424 1.011 0 .436-.146.81-.437 1.121-.291.312-.641.469-1.048.469s-.76-.148-1.057-.446c-.297-.297-.445-.648-.445-1.055 0-.424.145-.783.433-1.077.288-.295.645-.441 1.069-.441s.779.138 1.061.418zm11.536-.857c-.814-.862-1.857-1.293-3.131-1.293-1.267 0-2.309.409-3.126 1.229-.817.818-1.226 1.864-1.226 3.137 0 1.297.435 2.338 1.305 3.125.87.786 2.031 1.18 3.485 1.18 1.465 0 2.693-.365 3.687-1.095v-1.652c-1.068.795-2.09 1.192-3.065 1.192-.806 0-1.447-.204-1.926-.611-.479-.408-.745-.99-.797-1.746h5.937c.053-1.448-.328-2.603-1.143-3.466zm-4.742 2.088c.129-1.212.728-1.818 1.796-1.818 1.057 0 1.654.606 1.795 1.818h-3.591zm16.604-5.191c.233 0 .621.035 1.164.106v-2.119c-.782-.106-1.308-.159-1.576-.159-1.108 0-1.99.331-2.645.993-.653.662-.98 1.579-.98 2.75v.415h-1.182v1.793h1.182v6.542h2.601v-6.542h1.183v-1.793h-1.183v-.529c-.001-.972.478-1.457 1.436-1.457zm6.16 1.81c-1.004 0-1.883.854-2.636 2.56h-.035v-2.384h-2.601v8.335h2.601v-3.607c0-.124.206-.562.617-1.313.412-.751.918-1.127 1.52-1.127.386 0 .899.206 1.541.618l.719-2.322c-.673-.507-1.248-.76-1.726-.76zm6.336 0c-1.337 0-2.45.395-3.341 1.184-.891.79-1.335 1.839-1.335 3.146 0 1.285.436 2.329 1.309 3.134.873.804 1.995 1.206 3.367 1.206 1.267 0 2.358-.377 3.274-1.131.917-.755 1.375-1.818 1.375-3.191 0-1.366-.451-2.434-1.353-3.199-.902-.766-2-1.149-3.296-1.149zm0 7.117c-1.267 0-1.9-.929-1.9-2.786 0-.89.168-1.574.504-2.052.335-.478.801-.716 1.396-.716 1.243 0 1.865.905 1.865 2.715 0 1.892-.622 2.839-1.865 2.839zm17.979-7.117c-1.174 0-2.261.591-3.26 1.774-.566-1.184-1.56-1.774-2.979-1.774-1.034 0-1.992.414-2.874 1.244v-1.068h-2.601v8.335h2.601v-5.596c.642-.772 1.305-1.158 1.987-1.158.479 0 .863.156 1.152.469.288.312.433.76.433 1.344v4.941h2.593v-5.34c.608-.942 1.293-1.414 2.054-1.414.479 0 .854.163 1.124.49.269.327.403.785.403 1.375v4.889h2.601v-5.355c0-.938-.301-1.697-.902-2.28-.602-.585-1.38-.876-2.332-.876zm12.963-2.446h-.324l-3.459 3.902v.513h1.182v3.575c0 1.024.28 1.802.841 2.331.561.53 1.349.795 2.364.795.776 0 1.579-.174 2.408-.521v-1.897c-.625.323-1.205.485-1.742.485-.397 0-.708-.119-.933-.357s-.337-.563-.337-.976v-3.435h3.012v-1.793h-3.012v-2.622zm9.461 2.446c-1.021 0-1.894.465-2.618 1.395h-.035v-5.218h-2.601v12.334h2.601v-5.322c.572-.843 1.153-1.264 1.743-1.264.893 0 1.34.606 1.34 1.821v4.765h2.601v-5.32c0-1.002-.285-1.784-.854-2.347-.57-.562-1.295-.844-2.177-.844zm12.059 1.293c-.814-.862-1.858-1.293-3.131-1.293-1.267 0-2.309.409-3.126 1.229-.817.818-1.226 1.864-1.226 3.137 0 1.297.435 2.338 1.305 3.125.869.786 2.031 1.18 3.485 1.18 1.465 0 2.693-.365 3.687-1.095v-1.652c-1.068.795-2.091 1.192-3.065 1.192-.806 0-1.447-.204-1.926-.611-.479-.408-.745-.99-.797-1.746h5.937c.052-1.448-.329-2.603-1.143-3.466zm-4.743 2.088c.129-1.212.728-1.818 1.796-1.818 1.056 0 1.654.606 1.795 1.818h-3.591zm19.45 2.729c-1.272 0-2.316-.356-3.131-1.068s-1.222-1.615-1.222-2.711c0-1.089.413-1.984 1.239-2.688.826-.703 1.89-1.055 3.192-1.055 1.325 0 2.729.421 4.212 1.263v-2.747c-1.209-.724-2.686-1.086-4.431-1.086-2.189 0-3.963.618-5.32 1.854-1.357 1.235-2.036 2.739-2.036 4.512 0 1.771.644 3.262 1.932 4.472 1.287 1.21 3.017 1.814 5.188 1.814 1.676 0 3.278-.409 4.808-1.228v-2.692c-1.155.57-2.025.94-2.609 1.107-.585.169-1.192.253-1.822.253zm9.759-2.825h5.577v-2.261h-5.577v-2.587h5.849v-2.26h-8.896v12.334h9.02v-2.26h-5.972v-2.966zm19.672-5.365c-1.29-1.268-2.978-1.902-5.062-1.902-2.09 0-3.781.633-5.074 1.898s-1.939 2.743-1.939 4.432c0 1.72.65 3.202 1.952 4.45s2.989 1.872 5.062 1.872c2.049 0 3.728-.627 5.035-1.881s1.961-2.733 1.961-4.441c0-1.683-.645-3.159-1.935-4.428zm-2.268 7.153c-.706.691-1.637 1.037-2.793 1.037-1.162 0-2.098-.346-2.807-1.037-.709-.692-1.063-1.6-1.063-2.725 0-1.13.354-2.039 1.063-2.728s1.645-1.033 2.807-1.033c1.156 0 2.087.345 2.793 1.033.707.688 1.06 1.598 1.06 2.728-.001 1.125-.353 2.032-1.06 2.725z" enable-background="new"/><path fill="#fff" d="M131.095 43.663l-4.941 12.334h3.229l.913-2.437h5.479l1.008 2.437h3.277l-5.434-12.334h-3.531zm.009 7.743l1.797-4.795 1.983 4.795h-3.78zm17.857-2.194c1.115-.57 1.672-1.391 1.672-2.461 0-.836-.36-1.559-1.082-2.171-.721-.611-1.712-.917-2.973-.917h-5.289v12.334h5.955c1.418 0 2.493-.336 3.222-1.007.73-.672 1.095-1.543 1.095-2.615 0-.754-.223-1.414-.67-1.979-.446-.565-1.09-.96-1.93-1.184zm-4.624-3.289h1.594c.49 0 .873.124 1.147.371s.412.56.412.936c0 .383-.137.701-.412.954s-.657.38-1.147.38h-1.594v-2.641zm3.468 7.474c-.356.227-.94.34-1.751.34h-1.716v-2.914h2.137c.566 0 1.019.125 1.357.375.339.251.508.591.508 1.021-.001.558-.179.952-.535 1.178zm12.316-9.893c-2.09 0-3.781.633-5.074 1.898s-1.939 2.743-1.939 4.432c0 1.72.651 3.202 1.953 4.45s2.989 1.872 5.061 1.872c2.049 0 3.728-.627 5.035-1.881s1.961-2.733 1.961-4.441c0-1.683-.645-3.159-1.935-4.428-1.29-1.267-2.977-1.902-5.062-1.902zm2.794 9.055c-.706.691-1.637 1.037-2.793 1.037-1.162 0-2.097-.346-2.806-1.037-.709-.692-1.064-1.6-1.064-2.725 0-1.13.354-2.039 1.064-2.728.709-.688 1.645-1.033 2.806-1.033 1.156 0 2.087.345 2.793 1.033.707.688 1.06 1.598 1.06 2.728-.001 1.125-.354 2.032-1.06 2.725zm15.302-2.018c0 .977-.282 1.73-.845 2.26-.563.53-1.315.795-2.255.795-.905 0-1.636-.259-2.193-.777-.558-.518-.836-1.206-.836-2.065v-7.09h-3.056v7.019c0 1.767.536 3.12 1.607 4.062 1.071.942 2.576 1.413 4.514 1.413 1.961 0 3.47-.465 4.527-1.396 1.056-.93 1.585-2.295 1.585-4.097v-7.001h-3.047v6.877zm4.646-4.618h4.431v10.074h3.047v-10.074h4.431v-2.26h-11.909v2.26zm27.461 4.618c0 .977-.282 1.73-.845 2.26-.563.53-1.315.795-2.255.795-.905 0-1.636-.259-2.194-.777-.557-.518-.836-1.206-.836-2.065v-7.09h-3.056v7.019c0 1.767.536 3.12 1.607 4.062 1.071.942 2.576 1.413 4.514 1.413 1.961 0 3.47-.465 4.527-1.396 1.057-.93 1.585-2.295 1.585-4.097v-7.001h-3.047v6.877zm13.774-.115c-.394-.523-.862-.93-1.405-1.218-.543-.289-1.267-.601-2.172-.937-.905-.335-1.474-.609-1.708-.821s-.35-.436-.35-.671c0-.306.162-.552.486-.737.324-.186.76-.277 1.309-.277.963 0 2.256.367 3.879 1.104v-2.411c-1.454-.636-2.834-.953-4.142-.953-1.418 0-2.551.325-3.397.976-.847.651-1.27 1.506-1.27 2.565 0 .818.194 1.49.582 2.014.388.524.849.928 1.383 1.21.534.283 1.258.589 2.171.918.914.33 1.49.609 1.73.839.239.229.359.474.359.732 0 .759-.599 1.138-1.795 1.138-.707 0-1.375-.126-2.005-.379-.63-.253-1.354-.656-2.171-1.21v2.657c1.424.795 2.896 1.192 4.413 1.192 1.407 0 2.541-.339 3.402-1.016.861-.677 1.292-1.586 1.292-2.729 0-.8-.197-1.462-.591-1.986z" enable-background="new"/><path fill="#fff" d="M896.04 338.151c-2.091 0-3.782.633-5.075 1.898s-1.939 2.743-1.939 4.433c0 1.719.651 3.202 1.953 4.45 1.302 1.247 2.988 1.871 5.062 1.871 2.049 0 3.727-.627 5.034-1.88 1.309-1.254 1.962-2.734 1.962-4.441 0-1.684-.646-3.159-1.936-4.428s-2.977-1.903-5.061-1.903zm2.793 9.055c-.706.691-1.638 1.037-2.793 1.037-1.162 0-2.098-.346-2.807-1.037-.71-.691-1.064-1.6-1.064-2.724 0-1.13.354-2.04 1.064-2.729.709-.688 1.645-1.033 2.807-1.033 1.155 0 2.087.345 2.793 1.033s1.06 1.599 1.06 2.729c0 1.124-.354 2.033-1.06 2.724zm11.625.412c0 .183-.174.466-.521.852-.348.385-.767.577-1.257.577-.869 0-1.305-.529-1.305-1.587v-5.149h-2.601v5.333c0 .988.28 1.763.841 2.321.561.56 1.29.839 2.189.839 1.016 0 1.905-.45 2.67-1.351v1.192h2.602v-8.335h-2.618v5.308zm7.299-2.924h-.035v-2.384h-2.601v8.335h2.601v-3.608c0-.123.205-.562.617-1.312.411-.752.918-1.128 1.52-1.128.385 0 .898.206 1.541.618l.718-2.322c-.671-.506-1.246-.759-1.725-.759-1.005 0-1.883.853-2.636 2.56zm15.622-6.383h-5.395v12.335h5.053c2.276 0 4.029-.546 5.259-1.639 1.229-1.092 1.843-2.594 1.843-4.507 0-1.824-.605-3.312-1.816-4.463-1.213-1.151-2.86-1.726-4.944-1.726zm2.6 9.001c-.683.715-1.67 1.072-2.96 1.072h-1.987v-7.813h1.952c1.296 0 2.29.349 2.982 1.046.691.697 1.037 1.652 1.037 2.865.001 1.171-.341 2.115-1.024 2.83zm5.924.349c-.426 0-.792.154-1.099.463-.307.31-.46.679-.46 1.108 0 .436.153.807.46 1.112s.673.459 1.099.459c.432 0 .802-.153 1.107-.459.307-.306.46-.677.46-1.112 0-.43-.153-.799-.46-1.108-.305-.309-.675-.463-1.107-.463zm12.974-1.81l-6.532-7.54h-2.794v12.335h3.047v-7.902l6.753 7.902h2.573v-12.335h-3.047v7.54zm6.668 1.81c-.426 0-.793.154-1.099.463-.307.31-.46.679-.46 1.108 0 .436.153.807.46 1.112.306.306.673.459 1.099.459.432 0 .801-.153 1.107-.459s.46-.677.46-1.112c0-.43-.153-.799-.46-1.108-.306-.309-.675-.463-1.107-.463zm7.258-9.35l-4.941 12.335h3.229l.913-2.438h5.479l1.008 2.438h3.276l-5.434-12.335h-3.53zm.009 7.743l1.797-4.794 1.982 4.794h-3.779zm12.344 2.07c-.307-.309-.676-.463-1.108-.463-.426 0-.792.154-1.099.463-.307.31-.46.679-.46 1.108 0 .436.153.807.46 1.112s.673.459 1.099.459c.433 0 .802-.153 1.108-.459.306-.306.459-.677.459-1.112 0-.429-.153-.798-.459-1.108z" enable-background="new"/><path fill="#fff" d="M266.893 510.76c-2.09 0-3.782.633-5.074 1.897-1.294 1.266-1.94 2.743-1.94 4.433 0 1.719.651 3.202 1.953 4.45s2.989 1.871 5.062 1.871c2.049 0 3.727-.626 5.035-1.88 1.308-1.254 1.961-2.734 1.961-4.441 0-1.684-.645-3.159-1.935-4.428-1.292-1.268-2.978-1.902-5.062-1.902zm2.793 9.053c-.706.691-1.638 1.038-2.793 1.038-1.162 0-2.098-.347-2.807-1.038s-1.064-1.6-1.064-2.724c0-1.13.355-2.039 1.064-2.729.709-.688 1.645-1.033 2.807-1.033 1.155 0 2.087.345 2.793 1.033.706.689 1.06 1.599 1.06 2.729-.001 1.125-.354 2.033-1.06 2.724zm8.647-2.511h-.035v-2.384h-2.601v8.335h2.601v-3.608c0-.123.206-.561.617-1.312.412-.752.918-1.127 1.52-1.127.386 0 .899.206 1.541.617l.719-2.321c-.672-.507-1.247-.76-1.726-.76-1.004-.001-1.883.853-2.636 2.56zm8.989 10.109c1.418 0 2.503-.238 3.253-.715.75-.478 1.125-1.172 1.125-2.084 0-.571-.221-1.105-.661-1.603s-1.223-.795-2.347-.892c-1.124-.098-1.768-.191-1.931-.282-.164-.092-.245-.211-.245-.358 0-.146.062-.266.188-.357.126-.091.657-.188 1.594-.291.938-.103 1.646-.429 2.124-.976.479-.548.718-1.145.718-1.793 0-.453-.137-.915-.411-1.386h1.182v-1.757h-4.912c-1.203 0-2.119.306-2.75.918-.63.612-.945 1.318-.945 2.119 0 .653.219 1.216.656 1.687.438.471.993.765 1.664.883-1.004.229-1.506.65-1.506 1.263 0 .523.333.886.998 1.086-1.471.4-2.207 1.106-2.207 2.119 0 .729.374 1.315 1.121 1.757s1.844.662 3.292.662zm-1.162-10.498c.288-.294.645-.441 1.069-.441s.779.14 1.062.42c.282.279.423.616.423 1.011 0 .436-.146.81-.437 1.121-.291.312-.64.468-1.048.468-.407 0-.759-.148-1.056-.445-.297-.298-.445-.649-.445-1.056.001-.425.144-.783.432-1.078zm-.318 7.244c.351-.18.832-.269 1.445-.269 1.349 0 2.022.306 2.022.918 0 .288-.172.535-.517.741s-.794.31-1.349.31c-1.418 0-2.128-.327-2.128-.98.001-.3.177-.54.527-.72zm14.217-3.077v-3.802c0-1.691-1.168-2.537-3.503-2.537-1.302 0-2.495.339-3.581 1.016v2.137c.928-.931 1.943-1.396 3.047-1.396 1.016 0 1.495.465 1.437 1.396-2.347.701-3.752 1.274-4.217 1.72-.464.445-.696 1.03-.696 1.756 0 .542.226 1.018.675 1.428s.995.614 1.638.614c.91 0 1.818-.312 2.723-.936.152.624.637.936 1.454.936.759 0 1.57-.253 2.435-.759v-1.457c-.438.312-.766.468-.981.468-.289-.001-.431-.195-.431-.584zm-2.601.149c-.467.42-.946.629-1.437.629-.233 0-.432-.087-.595-.261-.164-.175-.245-.383-.245-.625 0-.378.161-.689.485-.935s.921-.521 1.791-.828v2.02zm7.509-3.353c.596-.919 1.2-1.378 1.812-1.378.858 0 1.287.558 1.287 1.671v5.084h2.602v-5.304c0-1.03-.288-1.823-.863-2.377s-1.291-.831-2.149-.831c-1.027 0-1.924.453-2.688 1.359v-1.183h-2.601v8.335h2.601v-5.376zm9.015-4.221c.396 0 .735-.143 1.016-.429.28-.285.42-.625.42-1.02 0-.4-.14-.741-.42-1.023-.28-.283-.619-.424-1.016-.424-.392 0-.728.141-1.008.424-.28.282-.42.623-.42 1.023 0 .395.14.734.42 1.02.281.287.617.429 1.008.429zm-1.288 9.598h2.602v-8.335h-2.602v8.335zm12.378 0v-1.793h-4.234l4.234-6.542h-8.073v1.792h3.833l-4.245 6.543h8.485zm8.447-2.173v-3.802c0-1.691-1.168-2.537-3.503-2.537-1.302 0-2.495.339-3.581 1.016v2.137c.928-.931 1.943-1.396 3.047-1.396 1.016 0 1.494.465 1.437 1.396-2.347.701-3.752 1.274-4.217 1.72-.464.445-.696 1.03-.696 1.756 0 .542.225 1.018.675 1.428.449.41.995.614 1.638.614.91 0 1.818-.312 2.723-.936.152.624.637.936 1.454.936.759 0 1.57-.253 2.435-.759v-1.457c-.438.312-.766.468-.981.468-.289-.001-.431-.195-.431-.584zm-2.601.149c-.468.42-.946.629-1.437.629-.233 0-.432-.087-.595-.261-.164-.175-.246-.383-.246-.625 0-.378.162-.689.486-.935s.921-.521 1.791-.828v2.02zm5.232-.943c0 1.024.28 1.801.84 2.331.561.529 1.349.794 2.364.794.776 0 1.579-.173 2.408-.521v-1.898c-.624.324-1.205.485-1.742.485-.397 0-.708-.119-.933-.357s-.337-.563-.337-.976v-3.435h3.012v-1.792h-3.012v-2.622h-.324l-3.459 3.902v.512h1.183v3.577zm6.826 2.967h2.602v-8.335h-2.602v8.335zm1.288-12.493c-.392 0-.728.141-1.008.424-.28.282-.42.623-.42 1.023 0 .395.14.734.42 1.02.28.286.616.429 1.008.429.396 0 .735-.143 1.016-.429.28-.285.42-.625.42-1.02 0-.4-.14-.741-.42-1.023-.281-.284-.62-.424-1.016-.424zm7.604 12.651c1.267 0 2.358-.377 3.275-1.131.916-.754 1.375-1.817 1.375-3.19 0-1.367-.451-2.434-1.354-3.199-.901-.767-2.001-1.149-3.297-1.149-1.337 0-2.45.395-3.34 1.185-.891.789-1.336 1.838-1.336 3.146 0 1.284.437 2.328 1.31 3.133.873.804 1.995 1.205 3.367 1.205zm-1.396-6.39c.336-.478.802-.717 1.396-.717 1.244 0 1.865.905 1.865 2.715 0 1.893-.621 2.839-1.865 2.839-1.267 0-1.899-.929-1.899-2.785 0-.891.167-1.575.503-2.052zm12.898-2.28c-1.027 0-1.923.453-2.688 1.359v-1.183h-2.601v8.335h2.601v-5.377c.595-.919 1.199-1.378 1.812-1.378.858 0 1.287.558 1.287 1.671v5.084h2.601v-5.304c0-1.03-.287-1.823-.862-2.377s-1.291-.83-2.15-.83zm12.02 6.339v-3.802c0-1.691-1.168-2.537-3.503-2.537-1.302 0-2.496.339-3.582 1.016v2.137c.929-.931 1.944-1.396 3.048-1.396 1.016 0 1.494.465 1.436 1.396-2.347.701-3.752 1.274-4.216 1.72s-.696 1.03-.696 1.756c0 .542.225 1.018.674 1.428.45.41.996.614 1.638.614.911 0 1.818-.312 2.724-.936.151.624.636.936 1.453.936.759 0 1.57-.253 2.435-.759v-1.457c-.438.312-.765.468-.98.468-.289-.001-.431-.195-.431-.584zm-2.602.149c-.467.42-.945.629-1.436.629-.233 0-.433-.087-.596-.261-.163-.175-.245-.383-.245-.625 0-.378.162-.689.486-.935s.921-.521 1.79-.828v2.02zm4.961-10.311v12.335h2.601v-12.335h-2.601zm-86.587 23.529c-.543-.289-1.267-.601-2.172-.937-.905-.335-1.475-.609-1.707-.821-.234-.212-.351-.436-.351-.671 0-.306.162-.552.485-.737.324-.186.761-.277 1.31-.277.963 0 2.256.367 3.879 1.104v-2.411c-1.453-.636-2.834-.953-4.142-.953-1.419 0-2.551.325-3.397.976-.847.651-1.27 1.506-1.27 2.566 0 .817.193 1.489.582 2.013.388.524.849.928 1.383 1.21.534.283 1.258.589 2.172.918.914.33 1.49.609 1.729.839s.359.474.359.732c0 .759-.599 1.138-1.795 1.138-.706 0-1.375-.126-2.005-.379-.631-.254-1.354-.656-2.172-1.21v2.657c1.424.795 2.896 1.192 4.413 1.192 1.407 0 2.541-.339 3.402-1.016.86-.677 1.291-1.586 1.291-2.728 0-.801-.197-1.463-.591-1.987-.392-.523-.86-.93-1.403-1.218zm6.432-4.168h-.324l-3.459 3.902v.513h1.183v3.575c0 1.024.28 1.802.841 2.331.561.53 1.349.795 2.364.795.776 0 1.579-.174 2.408-.521v-1.898c-.625.323-1.206.485-1.743.485-.396 0-.708-.119-.933-.357s-.337-.563-.337-.976v-3.435h3.013v-1.793h-3.013v-2.621zm6.879 5.006h-.035v-2.384h-2.601v8.335h2.601v-3.607c0-.124.206-.562.617-1.313.411-.751.918-1.127 1.52-1.127.385 0 .898.206 1.541.618l.718-2.322c-.671-.506-1.246-.759-1.725-.759-1.005 0-1.883.853-2.636 2.559zm10.836 2.925c0 .183-.174.466-.521.851-.348.386-.767.578-1.257.578-.87 0-1.305-.529-1.305-1.588v-5.149h-2.601v5.333c0 .989.28 1.763.841 2.322s1.29.839 2.188.839c1.017 0 1.906-.45 2.671-1.351v1.191h2.601v-8.335h-2.618v5.309zm7.693.645c-.455-.451-.684-1.045-.684-1.782 0-.73.233-1.314.701-1.751.467-.437 1.088-.654 1.865-.654.694 0 1.4.185 2.119.556v-1.951c-.981-.365-1.909-.547-2.785-.547-1.36 0-2.479.41-3.358 1.232-.878.822-1.317 1.866-1.317 3.133 0 1.297.435 2.338 1.305 3.125.87.786 2.031 1.18 3.485 1.18.846 0 1.777-.186 2.793-.557v-1.88c-1.004.382-1.78.573-2.329.573-.741 0-1.34-.225-1.795-.677zm8.612-8.576h-.324l-3.459 3.902v.513h1.183v3.575c0 1.024.28 1.802.84 2.331.561.53 1.349.795 2.365.795.775 0 1.578-.174 2.407-.521v-1.898c-.624.323-1.205.485-1.742.485-.397 0-.708-.119-.933-.357s-.337-.563-.337-.976v-3.435h3.012v-1.793h-3.012v-2.621zm9.856 7.931c0 .183-.174.466-.521.851-.348.386-.767.578-1.257.578-.87 0-1.305-.529-1.305-1.588v-5.149h-2.601v5.333c0 .989.28 1.763.84 2.322.561.56 1.291.839 2.189.839 1.016 0 1.906-.45 2.671-1.351v1.191h2.601v-8.335h-2.618v5.309zm7.299-2.925h-.035v-2.384h-2.601v8.335h2.601v-3.607c0-.124.206-.562.617-1.313.412-.751.918-1.127 1.52-1.127.386 0 .899.206 1.541.618l.719-2.322c-.672-.506-1.247-.759-1.726-.759-1.005 0-1.884.853-2.636 2.559zm11.865-1.266c-.814-.862-1.857-1.293-3.13-1.293-1.268 0-2.31.409-3.126 1.228-.817.819-1.227 1.865-1.227 3.138 0 1.297.435 2.338 1.305 3.125.87.786 2.032 1.18 3.485 1.18 1.465 0 2.694-.365 3.687-1.095v-1.651c-1.068.795-2.09 1.192-3.064 1.192-.806 0-1.448-.204-1.927-.611-.479-.408-.744-.99-.797-1.746h5.938c.051-1.45-.33-2.605-1.144-3.467zm-4.741 2.087c.128-1.212.727-1.818 1.795-1.818 1.057 0 1.655.606 1.795 1.818h-3.59z" enable-background="new"/><path fill="#fff" d="M609.884 423.208c-2.09 0-3.781.633-5.074 1.898-1.294 1.266-1.94 2.743-1.94 4.433 0 1.719.651 3.202 1.953 4.449 1.302 1.248 2.989 1.872 5.062 1.872 2.049 0 3.728-.627 5.035-1.881 1.308-1.253 1.961-2.733 1.961-4.44 0-1.684-.645-3.159-1.935-4.428-1.292-1.268-2.978-1.903-5.062-1.903zm2.793 9.055c-.706.691-1.638 1.037-2.793 1.037-1.162 0-2.098-.346-2.807-1.037s-1.063-1.6-1.063-2.724c0-1.131.354-2.04 1.063-2.729s1.645-1.033 2.807-1.033c1.155 0 2.087.345 2.793 1.033s1.06 1.598 1.06 2.729c-.001 1.124-.354 2.032-1.06 2.724zm11.625.412c0 .183-.174.466-.521.852-.347.385-.766.577-1.256.577-.87 0-1.305-.529-1.305-1.587v-5.149h-2.602v5.332c0 .989.28 1.764.841 2.322.561.56 1.29.839 2.189.839 1.016 0 1.906-.45 2.671-1.351v1.191h2.601v-8.334h-2.618v5.308zm9.4-3.022c.385 0 .898.206 1.541.618l.718-2.322c-.671-.506-1.246-.759-1.725-.759-1.004 0-1.883.854-2.636 2.561h-.035v-2.384h-2.601v8.334h2.601v-3.607c0-.123.206-.562.617-1.312.413-.753.919-1.129 1.52-1.129zm17.321 5.041c.729-.672 1.094-1.543 1.094-2.615 0-.754-.223-1.413-.669-1.979-.447-.565-1.091-.96-1.932-1.185 1.115-.57 1.673-1.391 1.673-2.461 0-.835-.36-1.559-1.081-2.17-.722-.612-1.712-.918-2.974-.918h-5.289v12.334h5.955c1.419.001 2.493-.334 3.223-1.006zm-6.129-9.067h1.594c.49 0 .872.124 1.147.371.273.247.411.56.411.937 0 .382-.138.7-.411.953-.275.253-.657.38-1.147.38h-1.594v-2.641zm0 7.814v-2.914h2.137c.566 0 1.019.125 1.357.376.338.25.508.59.508 1.02 0 .559-.179.952-.534 1.179-.356.227-.94.34-1.752.34h-1.716zm14.707 2.26h2.601v-8.334h-2.618v5.308c0 .183-.174.466-.521.852-.347.385-.766.577-1.256.577-.87 0-1.305-.529-1.305-1.587v-5.149h-2.602v5.332c0 .989.28 1.764.841 2.322.561.56 1.29.839 2.189.839 1.016 0 1.906-.45 2.671-1.351v1.191zm10.67-2.554c0-.548-.181-1.052-.543-1.512-.362-.459-.98-.865-1.855-1.217-.876-.352-1.379-.581-1.511-.69s-.197-.22-.197-.331c0-.43.312-.645.937-.645.847 0 1.766.306 2.759.918v-1.862c-.795-.412-1.685-.618-2.671-.618-1.027 0-1.855.238-2.482.716-.628.478-.941 1.096-.941 1.855 0 .513.163.979.49 1.396.327.419.934.803 1.82 1.152.886.35 1.407.596 1.562.736s.233.29.233.449c0 .411-.42.616-1.261.616-.718 0-1.608-.235-2.671-.706v1.845c.864.406 1.851.609 2.96.609 1.08 0 1.911-.235 2.495-.707.584-.468.876-1.137.876-2.004zm2.718-7.043c.397 0 .736-.143 1.017-.429.279-.285.42-.625.42-1.02 0-.4-.141-.741-.42-1.024-.28-.282-.619-.424-1.017-.424-.391 0-.727.142-1.007.424-.28.283-.42.624-.42 1.024 0 .395.14.734.42 1.02.281.287.617.429 1.007.429zm-1.287 9.597h2.601v-8.334h-2.601v8.334zm9.917-8.511c-1.027 0-1.923.453-2.688 1.359v-1.183h-2.602v8.334h2.602v-5.377c.595-.918 1.199-1.377 1.812-1.377.857 0 1.287.557 1.287 1.671v5.083h2.601v-5.303c0-1.031-.288-1.823-.862-2.378-.575-.552-1.291-.829-2.15-.829zm12.059 1.293c-.814-.862-1.858-1.293-3.131-1.293-1.267 0-2.309.409-3.126 1.229-.817.818-1.226 1.864-1.226 3.138 0 1.296.435 2.338 1.305 3.124.869.786 2.031 1.18 3.484 1.18 1.466 0 2.694-.365 3.688-1.095v-1.651c-1.068.795-2.091 1.192-3.065 1.192-.806 0-1.447-.204-1.927-.611-.479-.408-.744-.99-.797-1.746h5.938c.052-1.449-.329-2.604-1.143-3.467zm-4.742 2.089c.129-1.213.728-1.819 1.795-1.819 1.057 0 1.655.606 1.796 1.819h-3.591zm11.083-.153c-.876-.352-1.379-.581-1.511-.69s-.198-.22-.198-.331c0-.43.312-.645.938-.645.847 0 1.766.306 2.758.918v-1.862c-.794-.412-1.684-.618-2.67-.618-1.028 0-1.855.238-2.483.716-.627.478-.94 1.096-.94 1.855 0 .513.163.979.49 1.396.326.419.934.803 1.82 1.152.886.35 1.407.596 1.562.736s.233.29.233.449c0 .411-.42.616-1.261.616-.718 0-1.608-.235-2.671-.706v1.845c.863.406 1.851.609 2.96.609 1.079 0 1.911-.235 2.495-.707.584-.471.876-1.14.876-2.006 0-.548-.181-1.052-.543-1.512-.362-.457-.98-.863-1.855-1.215zm9.329 1.217c-.361-.459-.98-.865-1.855-1.217s-1.379-.581-1.511-.69-.197-.22-.197-.331c0-.43.312-.645.937-.645.847 0 1.766.306 2.759.918v-1.862c-.794-.412-1.685-.618-2.671-.618-1.027 0-1.855.238-2.482.716-.628.478-.941 1.096-.941 1.855 0 .513.163.979.49 1.396.327.419.934.803 1.82 1.152s1.407.596 1.562.736c.156.141.233.29.233.449 0 .411-.42.616-1.261.616-.718 0-1.608-.235-2.671-.706v1.845c.864.406 1.851.609 2.96.609 1.08 0 1.912-.235 2.496-.707.583-.471.875-1.14.875-2.006 0-.546-.181-1.05-.543-1.51zm-70.709 14.289l-3.935-4.574h-2.646v12.335h3.047v-7.699l3.305 3.867h.457l3.305-3.867v7.699h3.048v-12.335h-2.649l-3.932 4.574zm13.083-.751c-1.337 0-2.45.396-3.341 1.185-.891.79-1.335 1.838-1.335 3.146 0 1.284.436 2.329 1.309 3.133.873.805 1.995 1.207 3.367 1.207 1.267 0 2.358-.378 3.274-1.132.917-.754 1.375-1.817 1.375-3.19 0-1.367-.451-2.434-1.353-3.199-.902-.766-2-1.15-3.296-1.15zm0 7.116c-1.267 0-1.9-.928-1.9-2.785 0-.891.168-1.574.504-2.052.335-.478.801-.716 1.396-.716 1.243 0 1.865.904 1.865 2.714 0 1.893-.622 2.839-1.865 2.839zm11.93-6.586c-.706-.354-1.424-.53-2.154-.53-1.173 0-2.135.404-2.885 1.211-.75.808-1.125 1.848-1.125 3.12 0 1.243.369 2.277 1.107 3.103.738.824 1.659 1.237 2.763 1.237.864 0 1.629-.277 2.294-.83v.671h2.601v-12.335h-2.601v4.353zm0 5.694c-.496.459-1.01.688-1.541.688-.602 0-1.083-.23-1.444-.692-.362-.462-.543-1.076-.543-1.841 0-.83.182-1.475.547-1.934.365-.46.874-.689 1.528-.689.496 0 .98.162 1.453.486v3.982zm11.629-4.93c-.814-.862-1.857-1.294-3.13-1.294-1.268 0-2.31.41-3.126 1.229-.817.819-1.227 1.865-1.227 3.138 0 1.297.436 2.338 1.305 3.124.87.787 2.032 1.181 3.485 1.181 1.466 0 2.694-.365 3.687-1.095v-1.651c-1.068.795-2.09 1.191-3.064 1.191-.806 0-1.448-.203-1.927-.611-.479-.407-.744-.989-.797-1.746h5.937c.053-1.449-.328-2.604-1.143-3.466zm-4.741 2.088c.128-1.213.727-1.818 1.795-1.818 1.057 0 1.655.605 1.795 1.818h-3.59zm7.439 5.13h2.601v-12.335h-2.601v12.335z" enable-background="new"/></svg>